<svg width="201" height="88" viewBox="0 0 201 88" fill="none" xmlns="http://www.w3.org/2000/svg">
<path d="M106.274 0.333336H117.579V51.6846H106.274V0.333336Z" fill="#292929"/>
<path d="M147.255 40.525V51.6846H136.833L136.833 40.525H147.255Z" fill="#00E696"/>
<path d="M147.255 0.333336V11.4929H136.833L136.833 0.333336L147.255 0.333336Z" fill="#00E696"/>
<path d="M132.417 20.4728V31.6323H121.995V20.4728H132.417Z" fill="#00E696"/>
<path d="M53.8115 0.333337H65.1165V51.6846H53.8115V0.333337Z" fill="#292929"/>
<path d="M90.5528 0.333337H101.858V51.6846H90.5528V0.333337Z" fill="#292929"/>
<path d="M83.0456 40.525V51.6846H72.6237L72.6237 40.525H83.0456Z" fill="#00E696"/>
<path d="M86.1368 0.333337V11.4929L69.5325 11.4929V0.333336L86.1368 0.333337Z" fill="#00E696"/>
<path d="M151.671 0.333337H162.976V51.6846H151.671V0.333337Z" fill="#292929"/>
<path d="M188.412 0.333337H199.717V51.6846H188.412V0.333337Z" fill="#292929"/>
<path d="M180.905 40.525V51.6846H170.483V40.525H180.905Z" fill="#00E696"/>
<path d="M183.996 0.333337V11.4929L167.392 11.4929V0.333336L183.996 0.333337Z" fill="#00E696"/>
<path d="M1.34904 0.333336H12.6541V51.6846H1.34904V0.333336Z" fill="#292929"/>
<path d="M33.6744 40.525V51.6846H17.0701V40.525H33.6744Z" fill="#00E696"/>
<path d="M38.0904 0.333336H49.3954V51.6846H38.0904V0.333336Z" fill="#292929"/>
<path d="M0 75.6973C0 73.4472 0.455881 71.4436 1.36764 69.6864C2.30111 67.9292 3.62534 66.5685 5.34032 65.6041C7.0553 64.6184 9.0742 64.1255 11.397 64.1255C13.3942 64.1255 15.1743 64.5005 16.7373 65.2506C18.3221 65.9791 19.6029 67.0185 20.5798 68.3685C21.5784 69.7185 22.2405 71.2936 22.5661 73.0936H14.9464C14.599 72.3436 14.0997 71.765 13.4485 71.3579C12.8189 70.9293 12.0917 70.715 11.2668 70.715C10.0511 70.715 9.08506 71.165 8.36867 72.065C7.674 72.9651 7.32666 74.1758 7.32666 75.6973C7.32666 77.2188 7.674 78.4295 8.36867 79.3295C9.08506 80.2296 10.0511 80.6796 11.2668 80.6796C12.0917 80.6796 12.8189 80.476 13.4485 80.0688C14.0997 79.6403 14.599 79.0509 14.9464 78.3009H22.5661C22.2405 80.101 21.5784 81.676 20.5798 83.0261C19.6029 84.3761 18.3221 85.4261 16.7373 86.1762C15.1743 86.9047 13.3942 87.269 11.397 87.269C9.0742 87.269 7.0553 86.7869 5.34032 85.8226C3.62534 84.8368 2.30111 83.4654 1.36764 81.7082C0.455881 79.951 0 77.9473 0 75.6973Z" fill="#292929"/>
<path d="M39.9524 83.6689H32.2676L31.1279 87.1083H23.5407L31.9745 64.3505H40.3106L48.7118 87.1083H41.0921L39.9524 83.6689ZM38.194 78.3009L36.11 71.9686L34.026 78.3009H38.194Z" fill="#292929"/>
<path d="M68.4592 64.3505V70.0078H62.3374V87.1083H55.1084V70.0078H49.0517V64.3505H68.4592Z" fill="#292929"/>
<path d="M85.2034 83.6689H77.5186L76.3789 87.1083H68.7917L77.2255 64.3505H85.5616L93.9629 87.1083H86.3431L85.2034 83.6689ZM83.445 78.3009L81.361 71.9686L79.277 78.3009H83.445Z" fill="#292929"/>
<path d="M102.834 81.7082H109.803V87.1083H95.6052V64.3505H102.834V81.7082Z" fill="#292929"/>
<path d="M123.312 87.3333C121.141 87.3333 119.144 86.8297 117.32 85.8226C115.518 84.8154 114.086 83.4225 113.022 81.6439C111.958 79.8653 111.426 77.8616 111.426 75.633C111.426 73.4044 111.958 71.4007 113.022 69.6221C114.086 67.8435 115.518 66.4613 117.32 65.4756C119.144 64.4684 121.141 63.9648 123.312 63.9648C125.483 63.9648 127.469 64.4684 129.271 65.4756C131.073 66.4613 132.494 67.8435 133.536 69.6221C134.6 71.4007 135.132 73.4044 135.132 75.633C135.132 77.8616 134.6 79.8653 133.536 81.6439C132.494 83.4225 131.062 84.8154 129.238 85.8226C127.436 86.8297 125.461 87.3333 123.312 87.3333ZM123.312 80.6796C124.744 80.6796 125.852 80.2296 126.633 79.3295C127.415 78.4081 127.805 77.1759 127.805 75.633C127.805 74.0687 127.415 72.8365 126.633 71.9365C125.852 71.015 124.744 70.5543 123.312 70.5543C121.857 70.5543 120.739 71.015 119.958 71.9365C119.176 72.8365 118.785 74.0687 118.785 75.633C118.785 77.1759 119.176 78.4081 119.958 79.3295C120.739 80.2296 121.857 80.6796 123.312 80.6796Z" fill="#292929"/>
<path d="M151.872 72.1293C151.59 71.6793 151.188 71.3364 150.667 71.1007C150.146 70.8436 149.517 70.715 148.779 70.715C147.389 70.715 146.315 71.165 145.555 72.065C144.795 72.9436 144.415 74.1544 144.415 75.6973C144.415 77.4759 144.839 78.8045 145.685 79.6831C146.532 80.5617 147.834 81.001 149.593 81.001C151.264 81.001 152.61 80.3367 153.631 79.0081H147.867V73.9615H159.622V81.0974C158.624 82.7903 157.245 84.2475 155.487 85.469C153.728 86.669 151.503 87.269 148.811 87.269C146.423 87.269 144.339 86.7869 142.559 85.8226C140.801 84.8368 139.444 83.4654 138.489 81.7082C137.555 79.951 137.089 77.9473 137.089 75.6973C137.089 73.4472 137.555 71.4436 138.489 69.6864C139.444 67.9292 140.801 66.5685 142.559 65.6041C144.318 64.6184 146.38 64.1255 148.746 64.1255C151.764 64.1255 154.217 64.8434 156.105 66.2792C158.016 67.7149 159.145 69.665 159.492 72.1293H151.872Z" fill="#292929"/>
<path d="M169.292 64.3505V77.1759C169.292 78.2259 169.52 79.0617 169.976 79.6831C170.453 80.2831 171.213 80.5831 172.255 80.5831C173.297 80.5831 174.068 80.2831 174.567 79.6831C175.066 79.0617 175.316 78.2259 175.316 77.1759V64.3505H182.512V77.1759C182.512 79.3402 182.057 81.1939 181.145 82.7368C180.233 84.2582 178.985 85.4047 177.4 86.1762C175.815 86.9476 174.046 87.3333 172.092 87.3333C170.138 87.3333 168.402 86.9476 166.882 86.1762C165.384 85.4047 164.212 84.2582 163.365 82.7368C162.519 81.2153 162.095 79.3617 162.095 77.1759V64.3505H169.292Z" fill="#292929"/>
<path d="M192.859 70.04V72.8365H200.023V78.2045H192.859V81.4189H201V87.1083H185.63V64.3505H201V70.04H192.859Z" fill="#292929"/>
</svg>
